<?xml version="1.0" standalone="no"?><!DOCTYPE svg PUBLIC "-//W3C//DTD SVG 1.1//EN" "http://www.w3.org/Graphics/SVG/1.1/DTD/svg11.dtd"><svg t="1592581343003" class="icon" viewBox="0 0 1024 1024" version="1.1" xmlns="http://www.w3.org/2000/svg" p-id="5805" xmlns:xlink="http://www.w3.org/1999/xlink" width="200" height="200"><defs><style type="text/css"></style></defs><path d="M1002.666667 1023.978667c-2.368 0-4.778667-0.405333-7.082667-1.216l-214.592-75.584A509.930667 509.930667 0 0 1 512 1023.978667c-282.304 0-512-229.696-512-512C0 229.696 229.696 0.021333 512 0.021333s512 229.674667 512 511.957334c0 95.253333-26.517333 188.010667-76.8 268.992l75.584 214.592A21.333333 21.333333 0 0 1 1002.666667 1023.978667zM512 42.688c-258.794667 0-469.333333 210.517333-469.333333 469.290667 0 258.794667 210.538667 469.333333 469.333333 469.333333 90.325333 0 178.410667-26.154667 254.72-75.584a21.333333 21.333333 0 0 1 18.688-2.218667l182.336 64.234667-64.234667-182.357333a21.418667 21.418667 0 0 1 2.218667-18.709334A466.432 466.432 0 0 0 981.333333 511.978667c0-258.773333-210.538667-469.290667-469.333333-469.290667z" p-id="5806"></path><path d="M325.162667 511.978667a55.509333 55.509333 0 1 1-111.018667 0 55.466667 55.466667 0 0 1 55.445333-55.552 55.552 55.552 0 0 1 55.573334 55.552zM567.509333 511.978667a55.466667 55.466667 0 1 1-110.954666 0 55.466667 55.466667 0 1 1 110.954666 0zM809.898667 511.978667a55.488 55.488 0 0 1-55.552 55.530666 55.530667 55.530667 0 1 1 55.552-55.530666z" p-id="5807"></path></svg>