<?xml version="1.0" standalone="no"?><!DOCTYPE svg PUBLIC "-//W3C//DTD SVG 1.1//EN" "http://www.w3.org/Graphics/SVG/1.1/DTD/svg11.dtd"><svg t="1592224677355" class="icon" viewBox="0 0 1024 1024" version="1.1" xmlns="http://www.w3.org/2000/svg" p-id="3260" xmlns:xlink="http://www.w3.org/1999/xlink" width="200" height="200"><defs><style type="text/css"></style></defs><path d="M512 1015.04A503.04 503.04 0 1 1 1015.04 512 503.04 503.04 0 0 1 512 1015.04zM512 72.96A439.04 439.04 0 1 0 951.04 512 439.04 439.04 0 0 0 512 72.96z" fill="#bfbfbf" p-id="3261"></path><path d="M384 274.56a192 192 0 0 0-48.64 136.96c0 16 10.88 24.32 31.36 24.96s32.64-7.68 33.92-24.96A150.4 150.4 0 0 1 424.96 320a106.88 106.88 0 0 1 90.88-40.32 108.16 108.16 0 0 1 80.64 28.8A103.04 103.04 0 0 1 623.36 384a105.6 105.6 0 0 1-23.68 64 435.2 435.2 0 0 1-27.52 29.44 339.84 339.84 0 0 0-82.56 93.44A149.12 149.12 0 0 0 474.24 640v19.2a30.72 30.72 0 0 0 33.28 24.32 30.08 30.08 0 0 0 32.64-24.32V640a120.32 120.32 0 0 1 15.36-60.16 165.76 165.76 0 0 1 37.76-44.16c35.84-32 58.88-53.12 67.2-64a161.28 161.28 0 0 0 30.08-96 145.92 145.92 0 0 0-46.08-114.56 174.08 174.08 0 0 0-128-43.52A177.28 177.28 0 0 0 384 274.56z m108.8 522.88a42.88 42.88 0 0 0 42.88 0 41.6 41.6 0 0 0 21.12-35.84 44.16 44.16 0 0 0-44.8-43.52 43.52 43.52 0 0 0-42.24 43.52 41.6 41.6 0 0 0 21.12 35.84z m0 0" fill="#bfbfbf" p-id="3262"></path></svg>